<svg xmlns="http://www.w3.org/2000/svg" version="1.1" xmlnsXlink="http://www.w3.org/1999/xlink" xmlnsSvgjs="http://svgjs.com/svgjs" width="1600" height="880" preserveAspectRatio="none" viewBox="0 0 1600 880"><g mask="url(&quot;#SvgjsMask1068&quot;)" fill="none"><path d="M1369.4405978761185 891.9713797879658L1361.5179721381617 740.7986751562977 1210.3452675064937 748.7213008942546 1218.2678932444505 899.8940055259227z" fill="rgba(246, 136, 0, 1)" class="triangle-float2"></path><path d="M1080.094,876.173C1147.292,877.042,1210.207,841.627,1243.718,783.374C1277.141,725.275,1275.312,653.591,1241.398,595.777C1207.889,538.653,1146.306,505.862,1080.094,504.435C1011.122,502.948,940.413,528.602,906.279,588.554C872.433,648,888.255,720.691,923.636,779.237C957.646,835.515,1014.343,875.323,1080.094,876.173" fill="rgba(246, 136, 0, 1)" class="triangle-float3"></path><path d="M-113.2440480831948 793.6243814095407L-41.44905995686574 962.7627740412407 127.68933267483433 890.9677859149117 55.89434454850527 721.8293932832116z" fill="rgba(246, 136, 0, 1)" class="triangle-float2"></path><path d="M471.65982651507227 569.6563730669459L540.4534622943311 724.1694088377341 626.1728622858604 500.8627372876871z" fill="rgba(246, 136, 0, 1)" class="triangle-float2"></path><path d="M1085.5379130965316 9.227521619174212L1154.7557355218314 180.54764392613745 1326.0758578287946 111.32982150083758 1256.8580354034948-59.99030080612566z" fill="rgba(246, 136, 0, 1)" class="triangle-float2"></path><path d="M1014.965,553.592C1093.073,560.543,1186.91,562.669,1226.483,494.97C1266.224,426.983,1213.446,349.188,1174.437,280.779C1134.865,211.382,1094.717,128.681,1014.965,124.036C930.08,119.092,855.129,182.819,819.709,260.119C789.022,327.09,819.137,401.02,859.943,462.352C895.541,515.857,950.953,547.896,1014.965,553.592" fill="rgba(246, 136, 0, 1)" class="triangle-float2"></path><path d="M310.25507024707593-61.67119834831373L248.65143754890863 90.80314306560643 401.1257789628288 152.40677576377374 462.7294116609961-0.06756565014641325z" fill="rgba(246, 136, 0, 1)" class="triangle-float2"></path></g><defs><mask id="SvgjsMask1068"><rect width="1600" height="880" fill="#ffffff"></rect></mask></defs></svg>